<?xml version="1.0" encoding="utf-8"?>
<!-- Generator: Adobe Illustrator 19.0.0, SVG Export Plug-In . SVG Version: 6.00 Build 0)  -->
<svg version="1.1" id="Layer_1" xmlns="http://www.w3.org/2000/svg" xmlns:xlink="http://www.w3.org/1999/xlink" x="0px" y="0px"
	 viewBox="0 0 488 91" style="enable-background:new 0 0 488 91;" xml:space="preserve">
<style type="text/css">
	.st0{fill:#366487;}
</style>
<g id="XMLID_11_">
	<path id="XMLID_12_" class="st0" d="M27.1,40.1L13,60.8c-0.4,0.7,0,1.5,0.8,1.6l27.7,2.9L27.1,40.1L27.1,40.1z M13.9,53.4l10-16.3
		L13.7,31c-0.4-0.2-0.8,0-0.8,0.5v21.6C12.9,53.7,13.6,53.9,13.9,53.4z M15.3,67.8l25.8,11.6c0.7,0.3,1.5-0.2,1.5-1v-8.7l-27-3
		C15,66.7,14.8,67.5,15.3,67.8L15.3,67.8z M26.1,33.5l10.6-19c0.6-0.9-0.5-2-1.4-1.5l-20,13.1c-0.3,0.2-0.3,0.7,0,0.9L26.1,33.5
		L26.1,33.5z M44.8,34.9h14.5L46.6,12.5c-0.4-0.7-1.1-1-1.8-1c-0.7,0-1.4,0.3-1.8,1L30.2,34.9H44.8z M75.8,31l-10.2,6.1l10,16.3
		c0.3,0.5,1,0.3,1-0.3V31.5C76.6,31.1,76.2,30.8,75.8,31z M63.4,33.5l10.8-6.5c0.3-0.2,0.3-0.7,0-0.9l-20-13.1c-1-0.5-2,0.5-1.4,1.5
		L63.4,33.5z M73.9,66.8l-27,3v8.7c0,0.8,0.8,1.3,1.5,1l25.8-11.6C74.7,67.5,74.5,66.7,73.9,66.8L73.9,66.8z M62.5,40.1L48,65.3
		l27.7-2.9c0.8-0.1,1.2-0.9,0.8-1.6L62.5,40.1L62.5,40.1z M44.8,39.1H31.4l13.3,23.3l13.3-23.3H44.8z"/>
	<g id="XMLID_14_">
		<path id="XMLID_15_" class="st0" d="M84.5,63.5v-36H89v32.3h28.5v3.8H84.5z"/>
		<path id="XMLID_17_" class="st0" d="M123.5,63.5v-36h35.3v3.8H128v12h29.6V47H128v12.8h31.5v3.8H123.5z"/>
		<path id="XMLID_19_" class="st0" d="M165.6,63.5v-36h6.7l21.8,29.4l21.4-29.4h6.7v36h-4.5V31.6l-21.5,29.6h-4.1l-22.1-29.6v31.9
			H165.6z"/>
		<path id="XMLID_21_" class="st0" d="M229.8,46V45c0-3.2,0.2-5.9,0.5-8s0.9-3.9,1.6-5.3s1.8-2.4,3.1-3.1s3-1.2,5-1.5
			s4.4-0.4,7.2-0.4h8.8c3.7,0,6.7,0.1,9,0.4s4.1,0.8,5.3,1.6s2.1,2,2.6,3.5s0.7,3.5,0.7,6h-4.5c0-1.9-0.2-3.3-0.5-4.3
			s-0.9-1.8-1.9-2.3s-2.2-0.7-3.9-0.9s-4-0.2-6.8-0.2h-8.8c-2.2,0-4.1,0.1-5.6,0.2s-2.8,0.4-3.7,0.9s-1.7,1.2-2.2,2.3
			s-0.9,2.4-1,4.2s-0.3,4-0.3,6.8V46c0,2.7,0.1,4.9,0.3,6.6s0.5,3.1,1,4.2s1.2,1.8,2.2,2.3s2.2,0.9,3.7,1s3.4,0.2,5.6,0.2h10.4
			c2.6,0,4.7-0.1,6.2-0.3s2.8-0.7,3.6-1.4s1.4-1.8,1.7-3.2s0.4-3.4,0.4-5.8v-1.4h-17.2v-3.8H274v5.1c0,3-0.3,5.5-0.8,7.4
			s-1.4,3.4-2.6,4.4s-2.9,1.8-5,2.1c-2.1,0.4-4.8,0.6-8,0.6h-10.4c-3.5,0-6.4-0.2-8.7-0.7c-2.3-0.5-4-1.4-5.3-2.6s-2.2-3.1-2.7-5.5
			S229.8,49.8,229.8,46z"/>
		<path id="XMLID_23_" class="st0" d="M282.3,63.5v-36h35.3v3.8h-30.8v12h29.6V47h-29.6v12.8h31.5v3.8H282.3z"/>
		<path id="XMLID_25_" class="st0" d="M324.3,63.5v-36h4.7l36.2,30.4h0V27.5h4.5v36H365l-36.2-30.7h0v30.7H324.3z"/>
		<path id="XMLID_27_" class="st0" d="M378.8,63.5v-36h26.7c3.5,0,6.4,0.2,8.7,0.6s4,1.2,5.3,2.4s2.2,3,2.7,5.3s0.8,5.4,0.8,9.2V46
			c0,3.7-0.3,6.7-0.8,9s-1.4,4.1-2.7,5.3s-3,2.1-5.3,2.6s-5.2,0.7-8.7,0.7H378.8z M383.3,59.6h22.2c2.8,0,5-0.1,6.8-0.4
			s3-0.8,3.9-1.7s1.5-2.3,1.8-4.1s0.5-4.3,0.5-7.4V45c0-2.6-0.1-4.7-0.3-6.4s-0.5-3-1-4s-1.2-1.7-2.2-2.2s-2.2-0.8-3.7-0.9
			s-3.4-0.2-5.6-0.2h-22.2V59.6z"/>
		<path id="XMLID_30_" class="st0" d="M427.5,63.5l21-36h6l21,36h-5.3l-4.5-8.3h-28.5l-4.5,8.3H427.5z M439.5,51.5h24l-12-21
			L439.5,51.5z"/>
	</g>
</g>
</svg>
