<?xml version="1.0" encoding="utf-8"?>
<!-- Generator: Adobe Illustrator 19.0.0, SVG Export Plug-In . SVG Version: 6.00 Build 0)  -->
<svg version="1.1" id="Layer_1" xmlns="http://www.w3.org/2000/svg" xmlns:xlink="http://www.w3.org/1999/xlink" x="0px" y="0px"
	 viewBox="0 0 213 223" style="enable-background:new 0 0 213 223;" xml:space="preserve">
<style type="text/css">
	.st0{fill:#366487;}
</style>
<path id="XMLID_2_" class="st0" d="M58.1,98.5l-39.7,58.7c-1.2,1.9,0,4.3,2.2,4.6l78.4,8.3L58.1,98.5L58.1,98.5z M20.7,136.3
	L49,90.2L20.2,72.9c-1-0.6-2.3,0.1-2.3,1.3v61.3C17.9,137,19.9,137.6,20.7,136.3z M24.7,177L98,210c2,0.9,4.3-0.5,4.3-2.7v-24.7
	l-76.7-8.4C23.9,174,23.2,176.3,24.7,177L24.7,177z M55.3,79.9l30.1-53.8c1.6-2.7-1.4-5.7-4.1-4.2L24.6,59.1c-0.9,0.6-0.9,2,0,2.6
	L55.3,79.9L55.3,79.9z M108.3,83.8h41.1l-36-63.4c-1.2-1.9-3.2-2.9-5.1-2.9c-2,0-4,1-5.1,2.9l-36,63.4H108.3z M196.4,72.9
	l-28.9,17.3l28.4,46.1c0.8,1.3,2.8,0.7,2.8-0.8V74.2C198.6,73,197.4,72.3,196.4,72.9z M161.2,79.9l30.7-18.3c1-0.6,1-1.9,0-2.6
	l-56.8-37.1c-2.7-1.5-5.7,1.5-4.1,4.2L161.2,79.9z M190.9,174.2l-76.7,8.4v24.7c0,2.2,2.3,3.7,4.3,2.7l73.2-33
	C193.3,176.3,192.6,174,190.9,174.2L190.9,174.2z M158.4,98.5l-40.9,71.6l78.4-8.3c2.2-0.2,3.4-2.7,2.2-4.6L158.4,98.5L158.4,98.5z
	 M108.3,95.8H70.4l37.8,66.2l37.8-66.2H108.3z"/>
</svg>
